<svg xmlns="http://www.w3.org/2000/svg" xmlns:xlink="http://www.w3.org/1999/xlink" width="500" zoomAndPan="magnify" viewBox="0 0 375 374.999991" height="500" preserveAspectRatio="xMidYMid meet" version="1.0"><defs><g/><clipPath id="424ec95fb2"><path d="M 1 31.460938 L 320 31.460938 L 320 340.257812 L 1 340.257812 Z M 1 31.460938 " clip-rule="nonzero"/></clipPath><clipPath id="0e845bf636"><path d="M 152 0.28125 L 189 0.28125 L 189 34 L 152 34 Z M 152 0.28125 " clip-rule="nonzero"/></clipPath><clipPath id="02934744b8"><path d="M 0.519531 2 L 24 2 L 24 25 L 0.519531 25 Z M 0.519531 2 " clip-rule="nonzero"/></clipPath><clipPath id="e229556625"><rect x="0" width="37" y="0" height="34"/></clipPath><clipPath id="90aeaafd7c"><path d="M 180 0.28125 L 204 0.28125 L 204 34 L 180 34 Z M 180 0.28125 " clip-rule="nonzero"/></clipPath><clipPath id="8c1bc76030"><path d="M 0.601562 2 L 23.398438 2 L 23.398438 25 L 0.601562 25 Z M 0.601562 2 " clip-rule="nonzero"/></clipPath><clipPath id="2f9440b2bc"><rect x="0" width="24" y="0" height="34"/></clipPath><clipPath id="c5af2b12c0"><path d="M 197 0.28125 L 222 0.28125 L 222 34 L 197 34 Z M 197 0.28125 " clip-rule="nonzero"/></clipPath><clipPath id="360768556f"><path d="M 0.398438 2 L 24 2 L 24 25 L 0.398438 25 Z M 0.398438 2 " clip-rule="nonzero"/></clipPath><clipPath id="5b43c160d6"><rect x="0" width="25" y="0" height="34"/></clipPath><clipPath id="df65022505"><path d="M 214 0.28125 L 238 0.28125 L 238 35 L 214 35 Z M 214 0.28125 " clip-rule="nonzero"/></clipPath><clipPath id="fb6f993674"><path d="M 0.441406 2 L 23.960938 2 L 23.960938 25 L 0.441406 25 Z M 0.441406 2 " clip-rule="nonzero"/></clipPath><clipPath id="d138c59881"><rect x="0" width="24" y="0" height="35"/></clipPath><clipPath id="ba584cffec"><path d="M 137 0.28125 L 159 0.28125 L 159 34 L 137 34 Z M 137 0.28125 " clip-rule="nonzero"/></clipPath><clipPath id="2c8009da27"><rect x="0" width="22" y="0" height="34"/></clipPath><clipPath id="737c1e6789"><rect x="0" width="325" y="0" height="342"/></clipPath></defs><g transform="matrix(1, 0, 0, 1, 27, 17)"><g clip-path="url(#737c1e6789)"><g clip-path="url(#424ec95fb2)"><path fill="#f06a00" d="M 253.90625 126.070312 C 253.664062 125.613281 253.363281 125.199219 253.011719 124.828125 C 252.65625 124.453125 252.257812 124.132812 251.816406 123.867188 C 251.375 123.605469 250.90625 123.402344 250.410156 123.265625 C 249.910156 123.128906 249.40625 123.058594 248.890625 123.058594 L 203.332031 123.058594 L 232.691406 45.472656 C 232.855469 45.042969 232.960938 44.601562 233.019531 44.144531 C 233.074219 43.6875 233.074219 43.234375 233.015625 42.777344 C 232.960938 42.320312 232.851562 41.878906 232.6875 41.449219 C 232.523438 41.019531 232.3125 40.613281 232.050781 40.238281 C 231.789062 39.859375 231.488281 39.515625 231.144531 39.214844 C 230.800781 38.910156 230.421875 38.648438 230.015625 38.4375 C 229.609375 38.222656 229.183594 38.0625 228.738281 37.953125 C 228.289062 37.84375 227.835938 37.789062 227.378906 37.789062 L 138.257812 37.789062 C 137.644531 37.789062 137.042969 37.886719 136.460938 38.082031 C 135.875 38.277344 135.335938 38.558594 134.84375 38.929688 C 134.351562 39.300781 133.933594 39.738281 133.582031 40.246094 C 133.234375 40.75 132.972656 41.300781 132.800781 41.890625 L 92.851562 180.195312 C 92.726562 180.617188 92.65625 181.046875 92.636719 181.488281 C 92.613281 181.925781 92.644531 182.363281 92.722656 182.796875 C 92.800781 183.230469 92.929688 183.648438 93.109375 184.050781 C 93.285156 184.453125 93.503906 184.832031 93.769531 185.183594 C 94.035156 185.535156 94.335938 185.851562 94.671875 186.132812 C 95.011719 186.414062 95.378906 186.652344 95.773438 186.847656 C 96.164062 187.046875 96.578125 187.195312 97.003906 187.296875 C 97.433594 187.398438 97.867188 187.449219 98.308594 187.449219 L 152.242188 187.449219 L 115.128906 317.476562 C 114.941406 318.125 114.875 318.785156 114.925781 319.460938 C 114.976562 320.136719 115.140625 320.78125 115.421875 321.394531 C 115.703125 322.007812 116.082031 322.554688 116.558594 323.035156 C 117.035156 323.515625 117.578125 323.898438 118.191406 324.183594 C 118.804688 324.46875 119.449219 324.636719 120.121094 324.695312 C 120.796875 324.75 121.457031 324.6875 122.109375 324.503906 C 122.761719 324.324219 123.359375 324.035156 123.910156 323.640625 C 124.457031 323.246094 124.917969 322.765625 125.296875 322.207031 L 253.601562 131.910156 C 253.886719 131.484375 254.113281 131.023438 254.277344 130.535156 C 254.441406 130.046875 254.535156 129.546875 254.5625 129.03125 C 254.589844 128.515625 254.546875 128.007812 254.4375 127.507812 C 254.324219 127.003906 254.148438 126.523438 253.90625 126.070312 Z M 135.859375 286.222656 L 165.230469 183.328125 C 165.351562 182.90625 165.421875 182.472656 165.441406 182.035156 C 165.460938 181.597656 165.433594 181.160156 165.351562 180.726562 C 165.273438 180.296875 165.144531 179.878906 164.964844 179.476562 C 164.789062 179.074219 164.566406 178.699219 164.304688 178.347656 C 164.039062 177.996094 163.738281 177.679688 163.398438 177.398438 C 163.0625 177.117188 162.695312 176.878906 162.300781 176.683594 C 161.910156 176.488281 161.496094 176.339844 161.070312 176.238281 C 160.640625 176.140625 160.207031 176.089844 159.769531 176.089844 L 105.859375 176.089844 L 142.527344 49.144531 L 219.160156 49.144531 L 189.796875 126.730469 C 189.636719 127.160156 189.527344 127.601562 189.472656 128.058594 C 189.417969 128.515625 189.417969 128.972656 189.472656 129.425781 C 189.527344 129.882812 189.636719 130.328125 189.800781 130.757812 C 189.964844 131.183594 190.175781 131.589844 190.4375 131.96875 C 190.699219 132.34375 191 132.6875 191.34375 132.992188 C 191.691406 133.296875 192.066406 133.554688 192.472656 133.769531 C 192.878906 133.980469 193.304688 134.144531 193.753906 134.253906 C 194.199219 134.363281 194.652344 134.417969 195.109375 134.417969 L 238.214844 134.417969 Z M 319.398438 181.253906 C 319.394531 183.855469 319.328125 186.453125 319.199219 189.054688 C 319.066406 191.652344 318.875 194.246094 318.617188 196.832031 C 318.359375 199.421875 318.039062 202.003906 317.652344 204.578125 C 317.269531 207.148438 316.824219 209.710938 316.3125 212.261719 C 315.804688 214.8125 315.230469 217.351562 314.597656 219.875 C 313.964844 222.398438 313.269531 224.902344 312.511719 227.394531 C 311.753906 229.882812 310.9375 232.351562 310.058594 234.800781 C 309.179688 237.25 308.242188 239.675781 307.246094 242.078125 C 306.25 244.480469 305.195312 246.859375 304.082031 249.210938 C 302.96875 251.558594 301.796875 253.882812 300.570312 256.175781 C 299.34375 258.472656 298.058594 260.734375 296.722656 262.964844 C 295.382812 265.195312 293.992188 267.390625 292.546875 269.554688 C 291.097656 271.71875 289.601562 273.84375 288.050781 275.933594 C 286.5 278.023438 284.898438 280.074219 283.25 282.082031 C 281.597656 284.09375 279.898438 286.0625 278.152344 287.992188 C 276.40625 289.917969 274.613281 291.800781 272.773438 293.640625 C 270.933594 295.480469 269.050781 297.273438 267.121094 299.023438 C 265.195312 300.769531 263.226562 302.46875 261.214844 304.117188 C 259.203125 305.769531 257.152344 307.371094 255.0625 308.921875 C 252.976562 310.46875 250.847656 311.96875 248.6875 313.414062 C 246.523438 314.859375 244.328125 316.253906 242.09375 317.589844 C 239.863281 318.929688 237.601562 320.210938 235.308594 321.441406 C 233.015625 322.667969 230.691406 323.835938 228.339844 324.949219 C 225.988281 326.066406 223.613281 327.121094 221.207031 328.117188 C 218.804688 329.113281 216.378906 330.050781 213.929688 330.929688 C 211.480469 331.808594 209.011719 332.625 206.523438 333.382812 C 204.035156 334.136719 201.527344 334.835938 199.003906 335.46875 C 196.484375 336.101562 193.945312 336.675781 191.394531 337.183594 C 188.84375 337.695312 186.28125 338.140625 183.707031 338.523438 C 181.136719 338.910156 178.554688 339.230469 175.964844 339.488281 C 173.375 339.746094 170.78125 339.9375 168.183594 340.070312 C 165.585938 340.199219 162.984375 340.265625 160.382812 340.269531 C 155.738281 340.269531 151.535156 340.082031 147.535156 339.699219 C 147.164062 339.664062 146.800781 339.589844 146.445312 339.484375 C 146.085938 339.375 145.746094 339.234375 145.414062 339.0625 C 145.085938 338.886719 144.777344 338.679688 144.488281 338.445312 C 144.199219 338.210938 143.9375 337.949219 143.699219 337.660156 C 143.460938 337.371094 143.253906 337.066406 143.078125 336.738281 C 142.902344 336.410156 142.757812 336.066406 142.648438 335.710938 C 142.539062 335.351562 142.46875 334.988281 142.429688 334.617188 C 142.390625 334.25 142.390625 333.878906 142.425781 333.507812 C 142.460938 333.136719 142.535156 332.769531 142.640625 332.414062 C 142.746094 332.058594 142.886719 331.714844 143.0625 331.382812 C 143.238281 331.054688 143.445312 330.746094 143.679688 330.457031 C 143.914062 330.167969 144.175781 329.90625 144.464844 329.667969 C 144.75 329.429688 145.058594 329.222656 145.386719 329.046875 C 145.714844 328.871094 146.058594 328.726562 146.414062 328.617188 C 146.769531 328.507812 147.132812 328.4375 147.503906 328.398438 C 147.875 328.359375 148.246094 328.359375 148.617188 328.394531 C 152.253906 328.738281 156.101562 328.910156 160.382812 328.910156 C 162.800781 328.910156 165.214844 328.847656 167.628906 328.726562 C 170.039062 328.605469 172.449219 328.425781 174.851562 328.183594 C 177.257812 327.945312 179.652344 327.648438 182.042969 327.292969 C 184.429688 326.933594 186.808594 326.519531 189.179688 326.046875 C 191.546875 325.574219 193.90625 325.042969 196.246094 324.453125 C 198.589844 323.863281 200.917969 323.21875 203.230469 322.515625 C 205.539062 321.8125 207.832031 321.054688 210.105469 320.238281 C 212.378906 319.421875 214.632812 318.550781 216.863281 317.625 C 219.097656 316.703125 221.304688 315.722656 223.488281 314.6875 C 225.671875 313.652344 227.828125 312.566406 229.957031 311.425781 C 232.085938 310.289062 234.1875 309.097656 236.257812 307.851562 C 238.332031 306.609375 240.371094 305.316406 242.378906 303.976562 C 244.386719 302.632812 246.363281 301.242188 248.300781 299.800781 C 250.242188 298.363281 252.144531 296.875 254.011719 295.34375 C 255.878906 293.808594 257.707031 292.234375 259.496094 290.609375 C 261.289062 288.988281 263.035156 287.324219 264.746094 285.613281 C 266.453125 283.90625 268.117188 282.15625 269.742188 280.367188 C 271.363281 278.578125 272.941406 276.75 274.472656 274.882812 C 276.007812 273.015625 277.492188 271.109375 278.933594 269.171875 C 280.371094 267.230469 281.761719 265.257812 283.105469 263.246094 C 284.449219 261.238281 285.742188 259.199219 286.984375 257.128906 C 288.226562 255.054688 289.417969 252.957031 290.558594 250.824219 C 291.695312 248.695312 292.785156 246.539062 293.816406 244.355469 C 294.851562 242.171875 295.832031 239.964844 296.757812 237.734375 C 297.683594 235.5 298.554688 233.25 299.367188 230.976562 C 300.183594 228.699219 300.941406 226.410156 301.644531 224.097656 C 302.347656 221.785156 302.992188 219.457031 303.582031 217.117188 C 304.171875 214.773438 304.703125 212.417969 305.175781 210.046875 C 305.648438 207.679688 306.0625 205.300781 306.421875 202.910156 C 306.777344 200.519531 307.074219 198.125 307.3125 195.722656 C 307.554688 193.316406 307.734375 190.910156 307.855469 188.496094 C 307.976562 186.082031 308.039062 183.667969 308.039062 181.253906 C 308.082031 169.769531 306.777344 158.4375 304.132812 147.261719 C 301.484375 136.085938 297.566406 125.375 292.378906 115.128906 C 289.890625 110.167969 287.121094 105.375 284.0625 100.746094 C 275.039062 86.839844 263.980469 74.800781 250.886719 64.628906 C 250.59375 64.402344 250.328125 64.144531 250.085938 63.863281 C 249.84375 63.578125 249.628906 63.277344 249.449219 62.953125 C 249.265625 62.628906 249.117188 62.289062 249 61.933594 C 248.882812 61.582031 248.804688 61.21875 248.757812 60.851562 C 248.714844 60.480469 248.703125 60.109375 248.730469 59.738281 C 248.761719 59.367188 248.824219 59.003906 248.921875 58.644531 C 249.023438 58.285156 249.15625 57.941406 249.324219 57.609375 C 249.492188 57.277344 249.691406 56.964844 249.917969 56.671875 C 250.148438 56.378906 250.402344 56.109375 250.683594 55.867188 C 250.964844 55.621094 251.269531 55.410156 251.59375 55.226562 C 251.917969 55.042969 252.253906 54.890625 252.609375 54.773438 C 252.960938 54.65625 253.324219 54.578125 253.691406 54.53125 C 254.0625 54.484375 254.433594 54.476562 254.804688 54.5 C 255.175781 54.527344 255.539062 54.589844 255.898438 54.6875 C 256.257812 54.789062 256.601562 54.921875 256.9375 55.085938 C 257.269531 55.253906 257.582031 55.449219 257.875 55.679688 C 264.867188 61.109375 271.359375 67.085938 277.351562 73.609375 C 283.34375 80.128906 288.75 87.101562 293.570312 94.527344 C 296.863281 99.515625 299.84375 104.679688 302.519531 110.019531 C 308.074219 121.070312 312.273438 132.613281 315.125 144.648438 C 317.976562 156.683594 319.402344 168.886719 319.398438 181.253906 Z M 96.542969 320.753906 C 96.371094 321.085938 96.175781 321.398438 95.945312 321.691406 C 95.714844 321.984375 95.457031 322.253906 95.175781 322.496094 C 94.890625 322.738281 94.589844 322.953125 94.265625 323.136719 C 93.9375 323.320312 93.601562 323.46875 93.246094 323.585938 C 92.890625 323.703125 92.53125 323.78125 92.160156 323.828125 C 91.789062 323.875 91.417969 323.882812 91.046875 323.855469 C 90.675781 323.824219 90.308594 323.761719 89.949219 323.660156 C 89.589844 323.5625 89.246094 323.429688 88.914062 323.257812 C 85.472656 321.53125 82.101562 319.679688 78.792969 317.703125 C 75.488281 315.726562 72.261719 313.636719 69.105469 311.425781 C 65.953125 309.21875 62.882812 306.894531 59.898438 304.464844 C 56.914062 302.03125 54.023438 299.492188 51.222656 296.851562 C 48.421875 294.207031 45.722656 291.46875 43.121094 288.628906 C 40.519531 285.789062 38.023438 282.859375 35.636719 279.839844 C 33.25 276.820312 30.972656 273.71875 28.8125 270.53125 C 26.648438 267.347656 24.605469 264.085938 22.679688 260.753906 C 20.753906 257.417969 18.949219 254.019531 17.269531 250.554688 C 15.59375 247.089844 14.042969 243.566406 12.617188 239.988281 C 11.195312 236.410156 9.90625 232.785156 8.746094 229.117188 C 7.585938 225.445312 6.5625 221.734375 5.671875 217.988281 C 4.78125 214.242188 4.027344 210.46875 3.414062 206.667969 C 2.796875 202.867188 2.320312 199.050781 1.984375 195.214844 C 1.644531 191.378906 1.445312 187.535156 1.386719 183.6875 C 1.328125 179.835938 1.410156 175.988281 1.628906 172.144531 C 1.851562 168.300781 2.210938 164.472656 2.707031 160.652344 C 3.207031 156.835938 3.84375 153.039062 4.617188 149.269531 C 5.394531 145.496094 6.304688 141.757812 7.351562 138.054688 C 8.398438 134.347656 9.578125 130.6875 10.890625 127.066406 C 12.203125 123.445312 13.644531 119.878906 15.214844 116.363281 C 16.789062 112.851562 18.484375 109.394531 20.308594 106.003906 C 22.128906 102.613281 24.074219 99.292969 26.136719 96.042969 C 28.203125 92.792969 30.382812 89.621094 32.675781 86.527344 C 34.96875 83.4375 37.375 80.433594 39.886719 77.515625 C 42.398438 74.597656 45.015625 71.777344 47.734375 69.046875 C 50.449219 66.320312 53.265625 63.695312 56.171875 61.171875 C 59.082031 58.652344 62.078125 56.238281 65.164062 53.933594 C 68.246094 51.628906 71.410156 49.4375 74.652344 47.363281 C 77.898438 45.285156 81.210938 43.332031 84.597656 41.5 C 87.980469 39.664062 91.429688 37.953125 94.9375 36.371094 C 98.449219 34.789062 102.011719 33.332031 105.625 32.007812 C 105.976562 31.878906 106.335938 31.785156 106.703125 31.730469 C 107.070312 31.671875 107.441406 31.648438 107.8125 31.664062 C 108.1875 31.679688 108.554688 31.730469 108.917969 31.820312 C 109.277344 31.90625 109.628906 32.027344 109.96875 32.183594 C 110.304688 32.34375 110.625 32.53125 110.925781 32.75 C 111.230469 32.96875 111.503906 33.214844 111.757812 33.488281 C 112.011719 33.765625 112.234375 34.058594 112.429688 34.378906 C 112.625 34.695312 112.785156 35.03125 112.914062 35.378906 C 113.042969 35.730469 113.136719 36.089844 113.191406 36.457031 C 113.25 36.828125 113.273438 37.195312 113.257812 37.570312 C 113.242188 37.941406 113.191406 38.308594 113.101562 38.671875 C 113.015625 39.035156 112.894531 39.382812 112.738281 39.722656 C 112.578125 40.0625 112.390625 40.382812 112.171875 40.683594 C 111.953125 40.984375 111.707031 41.261719 111.429688 41.511719 C 111.15625 41.765625 110.863281 41.988281 110.542969 42.183594 C 110.226562 42.378906 109.890625 42.539062 109.539062 42.667969 C 106.183594 43.898438 102.875 45.25 99.617188 46.71875 C 96.359375 48.191406 93.15625 49.777344 90.011719 51.480469 C 86.867188 53.183594 83.789062 55 80.777344 56.925781 C 77.765625 58.851562 74.828125 60.886719 71.964844 63.027344 C 69.101562 65.167969 66.320312 67.40625 63.617188 69.75 C 60.917969 72.09375 58.304688 74.53125 55.78125 77.0625 C 53.257812 79.59375 50.828125 82.214844 48.492188 84.925781 C 46.160156 87.632812 43.929688 90.425781 41.796875 93.296875 C 39.667969 96.167969 37.644531 99.113281 35.726562 102.128906 C 33.808594 105.148438 32.003906 108.230469 30.3125 111.382812 C 28.621094 114.53125 27.042969 117.738281 25.582031 121 C 24.125 124.265625 22.785156 127.578125 21.566406 130.941406 C 20.347656 134.300781 19.253906 137.703125 18.28125 141.144531 C 17.308594 144.582031 16.464844 148.054688 15.742188 151.558594 C 15.023438 155.058594 14.433594 158.582031 13.96875 162.128906 C 13.507812 165.675781 13.171875 169.230469 12.96875 172.800781 C 12.761719 176.371094 12.6875 179.945312 12.742188 183.519531 C 12.796875 187.09375 12.984375 190.660156 13.296875 194.222656 C 13.613281 197.785156 14.054688 201.332031 14.625 204.859375 C 15.199219 208.390625 15.898438 211.894531 16.722656 215.371094 C 17.550781 218.851562 18.503906 222.292969 19.578125 225.703125 C 20.65625 229.113281 21.855469 232.480469 23.175781 235.800781 C 24.5 239.125 25.9375 242.394531 27.496094 245.613281 C 29.058594 248.828125 30.730469 251.984375 32.519531 255.082031 C 34.308594 258.179688 36.207031 261.203125 38.214844 264.164062 C 40.222656 267.121094 42.335938 270.003906 44.554688 272.804688 C 46.773438 275.609375 49.089844 278.332031 51.503906 280.96875 C 53.921875 283.601562 56.429688 286.148438 59.027344 288.601562 C 61.628906 291.054688 64.316406 293.410156 67.085938 295.671875 C 69.859375 297.929688 72.710938 300.085938 75.636719 302.136719 C 78.566406 304.1875 81.566406 306.128906 84.636719 307.960938 C 87.703125 309.796875 90.835938 311.515625 94.03125 313.121094 C 94.363281 313.289062 94.675781 313.488281 94.972656 313.71875 C 95.265625 313.949219 95.535156 314.203125 95.777344 314.488281 C 96.019531 314.769531 96.234375 315.074219 96.417969 315.398438 C 96.601562 315.722656 96.75 316.0625 96.867188 316.417969 C 96.984375 316.773438 97.0625 317.132812 97.109375 317.503906 C 97.15625 317.875 97.164062 318.246094 97.136719 318.617188 C 97.105469 318.988281 97.042969 319.355469 96.941406 319.714844 C 96.84375 320.074219 96.710938 320.421875 96.542969 320.753906 Z M 102.484375 289 C 102.292969 289.320312 102.070312 289.617188 101.820312 289.894531 C 101.566406 290.171875 101.292969 290.417969 100.992188 290.640625 C 100.691406 290.863281 100.375 291.054688 100.035156 291.210938 C 99.699219 291.371094 99.347656 291.496094 98.988281 291.585938 C 98.625 291.675781 98.257812 291.730469 97.886719 291.746094 C 97.511719 291.765625 97.140625 291.746094 96.773438 291.6875 C 96.40625 291.632812 96.042969 291.542969 95.695312 291.414062 C 95.34375 291.289062 95.007812 291.128906 94.6875 290.9375 C 92.347656 289.535156 90.054688 288.0625 87.8125 286.515625 C 85.566406 284.96875 83.371094 283.351562 81.230469 281.664062 C 79.089844 279.976562 77.003906 278.222656 74.972656 276.398438 C 72.945312 274.578125 70.976562 272.695312 69.066406 270.746094 C 67.15625 268.800781 65.3125 266.792969 63.53125 264.730469 C 61.75 262.664062 60.039062 260.542969 58.394531 258.371094 C 56.75 256.195312 55.175781 253.96875 53.671875 251.695312 C 52.171875 249.417969 50.742188 247.097656 49.386719 244.730469 C 48.035156 242.363281 46.757812 239.957031 45.558594 237.507812 C 44.359375 235.058594 43.238281 232.574219 42.195312 230.054688 C 41.15625 227.535156 40.195312 224.984375 39.320312 222.402344 C 38.441406 219.820312 37.648438 217.210938 36.9375 214.578125 C 36.226562 211.949219 35.601562 209.296875 35.058594 206.621094 C 34.519531 203.949219 34.0625 201.261719 33.695312 198.5625 C 33.324219 195.859375 33.042969 193.148438 32.847656 190.429688 C 32.652344 187.710938 32.542969 184.984375 32.519531 182.257812 C 32.5 179.53125 32.566406 176.808594 32.71875 174.085938 C 32.871094 171.363281 33.113281 168.648438 33.4375 165.941406 C 33.765625 163.234375 34.179688 160.539062 34.675781 157.859375 C 35.175781 155.179688 35.761719 152.515625 36.429688 149.875 C 37.101562 147.230469 37.851562 144.613281 38.691406 142.015625 C 39.527344 139.421875 40.445312 136.855469 41.449219 134.320312 C 42.449219 131.78125 43.53125 129.28125 44.691406 126.8125 C 45.851562 124.347656 47.09375 121.921875 48.410156 119.53125 C 49.726562 117.144531 51.117188 114.800781 52.585938 112.503906 C 54.050781 110.203125 55.589844 107.953125 57.199219 105.753906 C 58.8125 103.554688 60.488281 101.40625 62.238281 99.316406 C 63.984375 97.222656 65.800781 95.1875 67.675781 93.210938 C 69.554688 91.234375 71.496094 89.320312 73.496094 87.464844 C 75.496094 85.613281 77.554688 83.828125 79.667969 82.105469 C 81.785156 80.386719 83.953125 78.734375 86.171875 77.152344 C 88.394531 75.570312 90.664062 74.058594 92.980469 72.621094 C 93.308594 72.417969 93.652344 72.246094 94.015625 72.113281 C 94.378906 71.976562 94.753906 71.878906 95.132812 71.820312 C 95.515625 71.761719 95.902344 71.742188 96.289062 71.761719 C 96.675781 71.78125 97.054688 71.839844 97.429688 71.9375 C 97.804688 72.03125 98.164062 72.167969 98.511719 72.335938 C 98.859375 72.507812 99.1875 72.710938 99.492188 72.949219 C 99.800781 73.1875 100.078125 73.453125 100.328125 73.746094 C 100.582031 74.039062 100.800781 74.355469 100.988281 74.695312 C 101.175781 75.03125 101.328125 75.386719 101.441406 75.757812 C 101.558594 76.125 101.632812 76.503906 101.671875 76.886719 C 101.710938 77.273438 101.707031 77.660156 101.667969 78.042969 C 101.628906 78.429688 101.550781 78.804688 101.433594 79.175781 C 101.316406 79.542969 101.160156 79.894531 100.972656 80.234375 C 100.785156 80.570312 100.5625 80.886719 100.308594 81.179688 C 100.054688 81.472656 99.777344 81.734375 99.46875 81.972656 C 99.160156 82.207031 98.832031 82.410156 98.484375 82.578125 C 96.382812 83.894531 94.328125 85.277344 92.316406 86.722656 C 90.304688 88.171875 88.339844 89.683594 86.425781 91.257812 C 84.507812 92.828125 82.644531 94.460938 80.835938 96.15625 C 79.023438 97.847656 77.269531 99.59375 75.566406 101.398438 C 73.867188 103.203125 72.226562 105.058594 70.648438 106.96875 C 69.066406 108.878906 67.546875 110.835938 66.089844 112.84375 C 64.632812 114.847656 63.242188 116.898438 61.917969 118.992188 C 60.59375 121.089844 59.335938 123.222656 58.148438 125.398438 C 56.957031 127.574219 55.839844 129.785156 54.792969 132.03125 C 53.746094 134.277344 52.769531 136.554688 51.867188 138.863281 C 50.964844 141.171875 50.136719 143.507812 49.382812 145.871094 C 48.628906 148.230469 47.953125 150.613281 47.351562 153.019531 C 46.75 155.425781 46.226562 157.84375 45.78125 160.285156 C 45.335938 162.722656 44.964844 165.171875 44.675781 167.632812 C 44.386719 170.097656 44.175781 172.5625 44.042969 175.039062 C 43.910156 177.515625 43.855469 179.992188 43.882812 182.46875 C 43.90625 184.949219 44.011719 187.425781 44.195312 189.898438 C 44.378906 192.367188 44.640625 194.832031 44.984375 197.289062 C 45.324219 199.742188 45.742188 202.183594 46.242188 204.613281 C 46.738281 207.042969 47.3125 209.453125 47.960938 211.84375 C 48.613281 214.234375 49.339844 216.605469 50.140625 218.949219 C 50.945312 221.296875 51.820312 223.613281 52.769531 225.902344 C 53.71875 228.191406 54.742188 230.449219 55.835938 232.671875 C 56.929688 234.898438 58.09375 237.085938 59.328125 239.234375 C 60.5625 241.382812 61.863281 243.492188 63.230469 245.558594 C 64.601562 247.628906 66.03125 249.648438 67.53125 251.625 C 69.027344 253.597656 70.585938 255.523438 72.207031 257.402344 C 73.828125 259.277344 75.507812 261.097656 77.242188 262.867188 C 78.980469 264.636719 80.769531 266.347656 82.617188 268 C 84.464844 269.65625 86.359375 271.25 88.308594 272.78125 C 90.253906 274.316406 92.25 275.785156 94.292969 277.191406 C 96.332031 278.597656 98.417969 279.9375 100.546875 281.210938 C 100.863281 281.402344 101.164062 281.625 101.4375 281.875 C 101.714844 282.125 101.964844 282.398438 102.183594 282.699219 C 102.40625 283 102.597656 283.316406 102.753906 283.65625 C 102.914062 283.992188 103.039062 284.34375 103.128906 284.703125 C 103.21875 285.066406 103.273438 285.433594 103.289062 285.804688 C 103.308594 286.179688 103.289062 286.546875 103.234375 286.917969 C 103.179688 287.285156 103.085938 287.644531 102.960938 287.996094 C 102.835938 288.347656 102.675781 288.683594 102.484375 289 Z M 238.902344 95.222656 C 238.621094 94.972656 238.367188 94.703125 238.140625 94.402344 C 237.914062 94.105469 237.71875 93.785156 237.554688 93.449219 C 237.390625 93.113281 237.261719 92.761719 237.164062 92.398438 C 237.070312 92.035156 237.011719 91.667969 236.992188 91.292969 C 236.96875 90.921875 236.984375 90.546875 237.035156 90.175781 C 237.089844 89.804688 237.175781 89.441406 237.300781 89.089844 C 237.425781 88.734375 237.582031 88.394531 237.773438 88.074219 C 237.964844 87.75 238.183594 87.449219 238.433594 87.171875 C 238.683594 86.890625 238.960938 86.640625 239.261719 86.414062 C 239.5625 86.191406 239.878906 86 240.21875 85.835938 C 240.558594 85.675781 240.90625 85.550781 241.273438 85.457031 C 241.636719 85.367188 242.003906 85.3125 242.378906 85.292969 C 242.753906 85.273438 243.125 85.292969 243.496094 85.347656 C 243.867188 85.402344 244.230469 85.492188 244.582031 85.621094 C 244.933594 85.746094 245.273438 85.90625 245.59375 86.101562 C 245.914062 86.292969 246.210938 86.515625 246.488281 86.769531 C 248.988281 88.992188 251.367188 91.339844 253.617188 93.8125 C 260.039062 100.667969 265.640625 108.132812 270.425781 116.214844 C 275.207031 124.296875 279.058594 132.804688 281.972656 141.730469 C 286.183594 154.570312 288.277344 167.742188 288.25 181.253906 C 288.246094 183.25 288.195312 185.25 288.097656 187.242188 C 288 189.238281 287.859375 191.230469 287.667969 193.222656 C 287.476562 195.210938 287.238281 197.191406 286.957031 199.171875 C 286.671875 201.148438 286.34375 203.121094 285.964844 205.082031 C 285.589844 207.042969 285.167969 208.996094 284.703125 210.941406 C 284.234375 212.882812 283.722656 214.8125 283.164062 216.730469 C 282.609375 218.652344 282.007812 220.554688 281.359375 222.445312 C 280.714844 224.335938 280.023438 226.210938 279.289062 228.070312 C 278.554688 229.929688 277.777344 231.769531 276.957031 233.589844 C 276.136719 235.410156 275.273438 237.214844 274.371094 238.996094 C 273.464844 240.777344 272.519531 242.535156 271.535156 244.273438 C 270.546875 246.011719 269.519531 247.726562 268.453125 249.414062 C 267.386719 251.105469 266.28125 252.765625 265.136719 254.40625 C 263.992188 256.042969 262.808594 257.652344 261.589844 259.234375 C 260.367188 260.816406 259.113281 262.371094 257.820312 263.894531 C 256.527344 265.417969 255.199219 266.910156 253.835938 268.371094 C 252.472656 269.832031 251.078125 271.261719 249.648438 272.65625 C 248.21875 274.054688 246.757812 275.414062 245.265625 276.742188 C 243.769531 278.070312 242.246094 279.363281 240.695312 280.621094 C 239.140625 281.875 237.558594 283.097656 235.949219 284.277344 C 234.335938 285.460938 232.699219 286.605469 231.035156 287.710938 C 229.371094 288.816406 227.683594 289.882812 225.96875 290.910156 C 224.253906 291.9375 222.515625 292.921875 220.757812 293.867188 C 218.996094 294.816406 217.214844 295.71875 215.414062 296.582031 C 213.609375 297.441406 211.789062 298.261719 209.949219 299.039062 C 208.109375 299.816406 206.25 300.550781 204.375 301.242188 C 202.5 301.929688 200.609375 302.578125 198.703125 303.179688 C 196.796875 303.78125 194.878906 304.335938 192.949219 304.847656 C 191.015625 305.363281 189.074219 305.828125 187.121094 306.25 C 185.167969 306.671875 183.207031 307.046875 181.234375 307.375 C 179.265625 307.703125 177.289062 307.988281 175.304688 308.222656 C 173.320312 308.460938 171.332031 308.652344 169.339844 308.796875 C 169.207031 308.800781 169.078125 308.808594 168.945312 308.808594 C 168.582031 308.804688 168.21875 308.769531 167.863281 308.699219 C 167.503906 308.628906 167.15625 308.527344 166.820312 308.390625 C 166.480469 308.253906 166.160156 308.085938 165.855469 307.886719 C 165.546875 307.6875 165.265625 307.460938 165.003906 307.207031 C 164.742188 306.953125 164.507812 306.675781 164.296875 306.378906 C 164.089844 306.078125 163.910156 305.761719 163.761719 305.429688 C 163.613281 305.097656 163.5 304.753906 163.417969 304.398438 C 163.335938 304.042969 163.289062 303.683594 163.277344 303.316406 C 163.265625 302.953125 163.289062 302.589844 163.347656 302.230469 C 163.402344 301.871094 163.496094 301.519531 163.621094 301.179688 C 163.746094 300.835938 163.902344 300.507812 164.089844 300.195312 C 164.277344 299.882812 164.492188 299.59375 164.738281 299.320312 C 164.980469 299.050781 165.25 298.804688 165.539062 298.585938 C 165.832031 298.367188 166.140625 298.179688 166.46875 298.019531 C 166.796875 297.859375 167.136719 297.734375 167.488281 297.640625 C 167.839844 297.542969 168.199219 297.484375 168.5625 297.460938 C 170.378906 297.328125 172.1875 297.15625 173.996094 296.9375 C 175.804688 296.722656 177.605469 296.464844 179.402344 296.164062 C 181.195312 295.863281 182.984375 295.523438 184.765625 295.140625 C 186.542969 294.753906 188.3125 294.328125 190.074219 293.863281 C 191.832031 293.398438 193.578125 292.890625 195.316406 292.339844 C 197.050781 291.792969 198.773438 291.203125 200.480469 290.574219 C 202.191406 289.945312 203.882812 289.277344 205.558594 288.570312 C 207.238281 287.863281 208.898438 287.113281 210.539062 286.328125 C 212.179688 285.542969 213.804688 284.71875 215.40625 283.859375 C 217.011719 282.996094 218.59375 282.097656 220.15625 281.160156 C 221.714844 280.226562 223.253906 279.253906 224.773438 278.246094 C 226.289062 277.238281 227.78125 276.195312 229.246094 275.121094 C 230.714844 274.042969 232.15625 272.929688 233.570312 271.785156 C 234.984375 270.640625 236.375 269.464844 237.734375 268.253906 C 239.09375 267.042969 240.425781 265.804688 241.726562 264.53125 C 243.03125 263.257812 244.300781 261.957031 245.542969 260.625 C 246.785156 259.292969 247.992188 257.933594 249.171875 256.546875 C 250.347656 255.15625 251.492188 253.742188 252.605469 252.300781 C 253.71875 250.859375 254.792969 249.394531 255.835938 247.902344 C 256.878906 246.410156 257.886719 244.894531 258.859375 243.355469 C 259.832031 241.816406 260.765625 240.253906 261.664062 238.671875 C 262.566406 237.085938 263.425781 235.484375 264.25 233.859375 C 265.074219 232.238281 265.859375 230.597656 266.605469 228.9375 C 267.355469 227.277344 268.0625 225.601562 268.730469 223.90625 C 269.398438 222.214844 270.027344 220.503906 270.617188 218.78125 C 271.207031 217.058594 271.753906 215.324219 272.261719 213.578125 C 272.769531 211.828125 273.234375 210.070312 273.660156 208.300781 C 274.085938 206.53125 274.46875 204.75 274.8125 202.960938 C 275.15625 201.175781 275.457031 199.378906 275.714844 197.578125 C 275.972656 195.777344 276.1875 193.96875 276.359375 192.15625 C 276.535156 190.34375 276.664062 188.527344 276.753906 186.710938 C 276.84375 184.894531 276.890625 183.074219 276.894531 181.253906 C 276.914062 168.949219 275.011719 156.949219 271.175781 145.257812 C 268.511719 137.105469 264.992188 129.335938 260.621094 121.957031 C 256.25 114.574219 251.128906 107.757812 245.257812 101.5 C 243.253906 99.292969 241.132812 97.203125 238.902344 95.222656 Z M 238.902344 95.222656 " fill-opacity="1" fill-rule="nonzero"/></g><g clip-path="url(#0e845bf636)"><g transform="matrix(1, 0, 0, 1, 152, 0)"><g clip-path="url(#e229556625)"><g clip-path="url(#02934744b8)"><g fill="#2b4257" fill-opacity="1"><g transform="translate(1.705582, 23.917214)"><g><path d="M 12.796875 -21.75 L 21.484375 0.125 L 16.140625 0.09375 L 14.546875 -4.28125 L 6.25 -4.328125 L 4.609375 0.03125 L -0.734375 0 L 8.1875 -21.78125 Z M 12.875 -8.65625 L 10.46875 -15.015625 L 10.421875 -15.015625 L 7.953125 -8.6875 Z M 12.875 -8.65625 "/></g></g></g></g><g fill="#2b4257" fill-opacity="1"><g transform="translate(18.499869, 24.011894)"><g><path d="M 1.71875 -21.8125 L 9.671875 -21.78125 C 11.890625 -21.757812 13.6875 -21.171875 15.0625 -20.015625 C 16.4375 -18.867188 17.113281 -17.203125 17.09375 -15.015625 C 17.082031 -12.828125 16.375 -11.113281 14.96875 -9.875 C 13.570312 -8.632812 11.78125 -8.023438 9.59375 -8.046875 L 6.609375 -8.0625 L 6.5625 0.03125 L 1.59375 0.015625 Z M 6.625 -12.03125 L 8.03125 -12.015625 C 9.132812 -12.015625 10.046875 -12.234375 10.765625 -12.671875 C 11.484375 -13.117188 11.84375 -13.859375 11.84375 -14.890625 C 11.851562 -15.921875 11.5 -16.664062 10.78125 -17.125 C 10.070312 -17.582031 9.164062 -17.8125 8.0625 -17.8125 L 6.65625 -17.828125 Z M 6.625 -12.03125 "/></g></g></g></g></g></g><g clip-path="url(#90aeaafd7c)"><g transform="matrix(1, 0, 0, 1, 180, 0)"><g clip-path="url(#2f9440b2bc)"><g clip-path="url(#8c1bc76030)"><g fill="#2b4257" fill-opacity="1"><g transform="translate(1.584416, 24.074469)"><g><path d="M 12.796875 -21.75 L 21.484375 0.125 L 16.140625 0.09375 L 14.546875 -4.28125 L 6.25 -4.328125 L 4.609375 0.03125 L -0.734375 0 L 8.1875 -21.78125 Z M 12.875 -8.65625 L 10.46875 -15.015625 L 10.421875 -15.015625 L 7.953125 -8.6875 Z M 12.875 -8.65625 "/></g></g></g></g></g></g></g><g clip-path="url(#c5af2b12c0)"><g transform="matrix(1, 0, 0, 1, 197, 0)"><g clip-path="url(#5b43c160d6)"><g clip-path="url(#360768556f)"><g fill="#2b4257" fill-opacity="1"><g transform="translate(1.707705, 24.171037)"><g><path d="M 22.015625 0.125 L 15.578125 0.09375 L 10.46875 -7.375 L 5.265625 0.03125 L -0.90625 0 L 7.421875 -11.703125 L 0.59375 -21.828125 L 6.53125 -21.796875 L 10.515625 -15.8125 L 14.5625 -21.75 L 20.765625 -21.71875 L 13.546875 -11.671875 Z M 22.015625 0.125 "/></g></g></g></g></g></g></g><g clip-path="url(#df65022505)"><g transform="matrix(1, 0, 0, 1, 214, 0)"><g clip-path="url(#d138c59881)"><g clip-path="url(#fb6f993674)"><g fill="#2b4257" fill-opacity="1"><g transform="translate(1.595258, 24.266189)"><g><path d="M 22.015625 0.125 L 15.578125 0.09375 L 10.46875 -7.375 L 5.265625 0.03125 L -0.90625 0 L 7.421875 -11.703125 L 0.59375 -21.828125 L 6.53125 -21.796875 L 10.515625 -15.8125 L 14.5625 -21.75 L 20.765625 -21.71875 L 13.546875 -11.671875 Z M 22.015625 0.125 "/></g></g></g></g></g></g></g><g clip-path="url(#ba584cffec)"><g transform="matrix(1, 0, 0, 1, 137, 0)"><g clip-path="url(#2c8009da27)"><g fill="#2b4257" fill-opacity="1"><g transform="translate(1.115979, 23.829356)"><g><path d="M 13.234375 -4.421875 C 13.992188 -4.421875 14.726562 -4.53125 15.4375 -4.75 C 16.15625 -4.976562 16.679688 -5.195312 17.015625 -5.40625 L 17.515625 -5.75 L 19.625 -1.5 C 19.550781 -1.445312 19.445312 -1.375 19.3125 -1.28125 C 19.1875 -1.195312 18.898438 -1.039062 18.453125 -0.8125 C 18.003906 -0.582031 17.519531 -0.378906 17 -0.203125 C 16.488281 -0.0234375 15.816406 0.128906 14.984375 0.265625 C 14.160156 0.398438 13.3125 0.460938 12.4375 0.453125 C 10.40625 0.441406 8.484375 -0.0625 6.671875 -1.0625 C 4.859375 -2.070312 3.398438 -3.453125 2.296875 -5.203125 C 1.203125 -6.953125 0.660156 -8.84375 0.671875 -10.875 C 0.679688 -12.40625 1.015625 -13.875 1.671875 -15.28125 C 2.328125 -16.6875 3.195312 -17.890625 4.28125 -18.890625 C 5.375 -19.890625 6.644531 -20.679688 8.09375 -21.265625 C 9.550781 -21.859375 11.039062 -22.15625 12.5625 -22.15625 C 13.96875 -22.144531 15.265625 -21.96875 16.453125 -21.625 C 17.648438 -21.28125 18.488281 -20.941406 18.96875 -20.609375 L 19.71875 -20.09375 L 17.578125 -15.890625 C 17.453125 -15.992188 17.265625 -16.117188 17.015625 -16.265625 C 16.773438 -16.421875 16.285156 -16.625 15.546875 -16.875 C 14.804688 -17.125 14.054688 -17.25 13.296875 -17.25 C 12.097656 -17.257812 11.019531 -17.070312 10.0625 -16.6875 C 9.113281 -16.300781 8.359375 -15.796875 7.796875 -15.171875 C 7.234375 -14.546875 6.800781 -13.863281 6.5 -13.125 C 6.207031 -12.394531 6.0625 -11.648438 6.0625 -10.890625 C 6.050781 -9.234375 6.664062 -7.742188 7.90625 -6.421875 C 9.144531 -5.097656 10.921875 -4.429688 13.234375 -4.421875 Z M 13.234375 -4.421875 "/></g></g></g></g></g></g></g></g></svg>