<svg xmlns="http://www.w3.org/2000/svg" xmlns:xlink="http://www.w3.org/1999/xlink" zoomAndPan="magnify" preserveAspectRatio="xMidYMid meet" version="1.0" viewBox="18 136.47 449.74 178.44"><defs><g/><clipPath id="3318cb04b5"><rect x="0" width="161" y="0" height="151"/></clipPath><clipPath id="65d93e5840"><rect x="0" width="350" y="0" height="107"/></clipPath><clipPath id="9f51734100"><path d="M 0.28125 8 L 102 8 L 102 108 L 0.28125 108 Z M 0.28125 8 " clip-rule="nonzero"/></clipPath><clipPath id="fe418240eb"><rect x="0" width="103" y="0" height="151"/></clipPath><clipPath id="85e9ad7a20"><rect x="0" width="107" y="0" height="151"/></clipPath><clipPath id="d0554662d5"><rect x="0" width="107" y="0" height="151"/></clipPath><clipPath id="9aa021a62d"><rect x="0" width="92" y="0" height="151"/></clipPath></defs><g transform="matrix(1, 0, 0, 1, 81, 130)"><g clip-path="url(#3318cb04b5)"><g fill="#2b4257" fill-opacity="1"><g transform="translate(5.140798, 107.529991)"><g><path d="M 57.625 -99.25 L 97.6875 0 L 73.390625 0 L 66.046875 -19.84375 L 28.265625 -19.84375 L 20.9375 0 L -3.375 0 L 36.6875 -99.25 Z M 58.34375 -39.703125 L 47.28125 -68.578125 L 47.046875 -68.578125 L 35.96875 -39.703125 Z M 58.34375 -39.703125 "/></g></g></g><g fill="#2b4257" fill-opacity="1"><g transform="translate(81.528456, 107.529991)"><g><path d="M 7.21875 -99.25 L 43.4375 -99.25 C 53.539062 -99.25 61.71875 -96.640625 67.96875 -91.421875 C 74.226562 -86.210938 77.359375 -78.632812 77.359375 -68.6875 C 77.359375 -58.75 74.1875 -50.953125 67.84375 -45.296875 C 61.507812 -39.640625 53.375 -36.8125 43.4375 -36.8125 L 29.84375 -36.8125 L 29.84375 0 L 7.21875 0 Z M 29.84375 -54.859375 L 36.21875 -54.859375 C 41.269531 -54.859375 45.414062 -55.878906 48.65625 -57.921875 C 51.90625 -59.972656 53.53125 -63.320312 53.53125 -67.96875 C 53.53125 -72.707031 51.90625 -76.097656 48.65625 -78.140625 C 45.414062 -80.179688 41.269531 -81.203125 36.21875 -81.203125 L 29.84375 -81.203125 Z M 29.84375 -54.859375 "/></g></g></g></g></g><g transform="matrix(1, 0, 0, 1, 120, 240)"><g clip-path="url(#65d93e5840)"><g fill="#f06a00" fill-opacity="1"><g transform="translate(0.36342, 73.625647)"><g><path d="M 45.53125 -70.609375 L 45.53125 -56.484375 L 21.21875 -56.484375 L 21.21875 -42.453125 L 44.5 -42.453125 L 44.5 -28.328125 L 21.21875 -28.328125 L 21.21875 -14.125 L 45.53125 -14.125 L 45.53125 0 L 5.140625 0 L 5.140625 -70.609375 Z M 45.53125 -70.609375 "/></g></g></g><g fill="#f06a00" fill-opacity="1"><g transform="translate(45.696618, 73.625647)"><g><path d="M 21.21875 -43.8125 L 21.21875 0 L 5.140625 0 L 5.140625 -70.609375 L 21.21875 -70.609375 L 49.296875 -26.78125 L 49.46875 -26.78125 L 49.46875 -70.609375 L 65.546875 -70.609375 L 65.546875 0 L 49.46875 0 L 21.390625 -43.8125 Z M 21.21875 -43.8125 "/></g></g></g><g fill="#f06a00" fill-opacity="1"><g transform="translate(112.072645, 73.625647)"><g><path d="M 45.53125 -70.609375 L 45.53125 -56.484375 L 21.21875 -56.484375 L 21.21875 -42.453125 L 44.5 -42.453125 L 44.5 -28.328125 L 21.21875 -28.328125 L 21.21875 -14.125 L 45.53125 -14.125 L 45.53125 0 L 5.140625 0 L 5.140625 -70.609375 Z M 45.53125 -70.609375 "/></g></g></g><g fill="#f06a00" fill-opacity="1"><g transform="translate(157.405843, 73.625647)"><g><path d="M 5.140625 -70.609375 L 30.375 -70.609375 C 37.164062 -70.609375 42.703125 -68.796875 46.984375 -65.171875 C 51.265625 -61.546875 53.40625 -56.367188 53.40625 -49.640625 C 53.40625 -44.441406 52.101562 -40.085938 49.5 -36.578125 C 46.90625 -33.078125 43.382812 -30.613281 38.9375 -29.1875 L 63.25 0 L 42.796875 0 L 21.21875 -27.90625 L 21.21875 0 L 5.140625 0 Z M 21.21875 -39.28125 L 23.109375 -39.28125 C 24.585938 -39.28125 25.835938 -39.304688 26.859375 -39.359375 C 27.890625 -39.421875 29.0625 -39.625 30.375 -39.96875 C 31.6875 -40.3125 32.742188 -40.796875 33.546875 -41.421875 C 34.347656 -42.046875 35.03125 -42.957031 35.59375 -44.15625 C 36.164062 -45.351562 36.453125 -46.804688 36.453125 -48.515625 C 36.453125 -50.234375 36.164062 -51.691406 35.59375 -52.890625 C 35.03125 -54.085938 34.347656 -55 33.546875 -55.625 C 32.742188 -56.25 31.6875 -56.734375 30.375 -57.078125 C 29.0625 -57.421875 27.890625 -57.617188 26.859375 -57.671875 C 25.835938 -57.734375 24.585938 -57.765625 23.109375 -57.765625 L 21.21875 -57.765625 Z M 21.21875 -39.28125 "/></g></g></g><g fill="#f06a00" fill-opacity="1"><g transform="translate(214.372472, 73.625647)"><g><path d="M 68.96875 -39.53125 L 68.96875 -24.21875 C 67.144531 -15.832031 63.148438 -9.484375 56.984375 -5.171875 C 50.828125 -0.867188 43.957031 1.28125 36.375 1.28125 C 26.84375 1.28125 18.722656 -2.28125 12.015625 -9.40625 C 5.316406 -16.539062 1.96875 -25.160156 1.96875 -35.265625 C 1.96875 -45.523438 5.25 -54.191406 11.8125 -61.265625 C 18.375 -68.347656 26.5625 -71.890625 36.375 -71.890625 C 47.84375 -71.890625 56.910156 -67.863281 63.578125 -59.8125 L 53.0625 -48.265625 C 49.289062 -54.316406 44.039062 -57.34375 37.3125 -57.34375 C 32.34375 -57.34375 28.101562 -55.1875 24.59375 -50.875 C 21.09375 -46.570312 19.34375 -41.367188 19.34375 -35.265625 C 19.34375 -29.265625 21.09375 -24.140625 24.59375 -19.890625 C 28.101562 -15.640625 32.34375 -13.515625 37.3125 -13.515625 C 41.414062 -13.515625 44.992188 -14.753906 48.046875 -17.234375 C 51.097656 -19.722656 52.625 -23.019531 52.625 -27.125 L 36.375 -27.125 L 36.375 -39.53125 Z M 68.96875 -39.53125 "/></g></g></g><g fill="#f06a00" fill-opacity="1"><g transform="translate(281.005088, 73.625647)"><g><path d="M -2.5625 -70.609375 L 16.765625 -70.609375 L 31.5 -48.015625 L 46.21875 -70.609375 L 65.546875 -70.609375 L 39.53125 -31.65625 L 39.53125 0 L 23.453125 0 L 23.453125 -31.65625 Z M -2.5625 -70.609375 "/></g></g></g></g></g><g transform="matrix(1, 0, 0, 1, 209, 130)"><g clip-path="url(#fe418240eb)"><g clip-path="url(#9f51734100)"><g fill="#2b4257" fill-opacity="1"><g transform="translate(3.94572, 107.530241)"><g><path d="M 57.625 -99.25 L 97.6875 0 L 73.390625 0 L 66.046875 -19.84375 L 28.265625 -19.84375 L 20.9375 0 L -3.375 0 L 36.6875 -99.25 Z M 58.34375 -39.703125 L 47.28125 -68.578125 L 47.046875 -68.578125 L 35.96875 -39.703125 Z M 58.34375 -39.703125 "/></g></g></g></g></g></g><g transform="matrix(1, 0, 0, 1, 285, 130)"><g clip-path="url(#85e9ad7a20)"><g fill="#2b4257" fill-opacity="1"><g transform="translate(5.829801, 107.530358)"><g><path d="M 100.09375 0 L 70.859375 0 L 47.40625 -33.8125 L 23.9375 0 L -4.09375 0 L 33.453125 -53.421875 L 2.171875 -99.25 L 29.109375 -99.25 L 47.40625 -72.1875 L 65.6875 -99.25 L 93.84375 -99.25 L 61.359375 -53.421875 Z M 100.09375 0 "/></g></g></g></g></g><g transform="matrix(1, 0, 0, 1, 362, 130)"><g clip-path="url(#d0554662d5)"><g fill="#2b4257" fill-opacity="1"><g transform="translate(5.641718, 107.530123)"><g><path d="M 100.09375 0 L 70.859375 0 L 47.40625 -33.8125 L 23.9375 0 L -4.09375 0 L 33.453125 -53.421875 L 2.171875 -99.25 L 29.109375 -99.25 L 47.40625 -72.1875 L 65.6875 -99.25 L 93.84375 -99.25 L 61.359375 -53.421875 Z M 100.09375 0 "/></g></g></g></g></g><g transform="matrix(1, 0, 0, 1, 15, 130)"><g clip-path="url(#9aa021a62d)"><g fill="#2b4257" fill-opacity="1"><g transform="translate(0.232524, 107.529991)"><g><path d="M 60.03125 -20.453125 C 63.476562 -20.453125 66.828125 -20.972656 70.078125 -22.015625 C 73.328125 -23.054688 75.710938 -24.0625 77.234375 -25.03125 L 79.53125 -26.59375 L 89.15625 -7.34375 C 88.832031 -7.101562 88.390625 -6.78125 87.828125 -6.375 C 87.265625 -5.976562 85.957031 -5.238281 83.90625 -4.15625 C 81.863281 -3.070312 79.679688 -2.128906 77.359375 -1.328125 C 75.035156 -0.523438 71.988281 0.191406 68.21875 0.828125 C 64.445312 1.472656 60.554688 1.796875 56.546875 1.796875 C 47.316406 1.796875 38.570312 -0.46875 30.3125 -5 C 22.050781 -9.53125 15.394531 -15.765625 10.34375 -23.703125 C 5.289062 -31.640625 2.765625 -40.222656 2.765625 -49.453125 C 2.765625 -56.429688 4.25 -63.128906 7.21875 -69.546875 C 10.1875 -75.960938 14.132812 -81.453125 19.0625 -86.015625 C 24 -90.585938 29.753906 -94.238281 36.328125 -96.96875 C 42.910156 -99.695312 49.648438 -101.0625 56.546875 -101.0625 C 62.960938 -101.0625 68.875 -100.296875 74.28125 -98.765625 C 79.695312 -97.242188 83.53125 -95.722656 85.78125 -94.203125 L 89.15625 -91.921875 L 79.53125 -72.671875 C 78.96875 -73.148438 78.125 -73.726562 77 -74.40625 C 75.875 -75.09375 73.625 -75.992188 70.25 -77.109375 C 66.882812 -78.234375 63.476562 -78.796875 60.03125 -78.796875 C 54.582031 -78.796875 49.691406 -77.914062 45.359375 -76.15625 C 41.023438 -74.394531 37.59375 -72.066406 35.0625 -69.171875 C 32.539062 -66.285156 30.617188 -63.175781 29.296875 -59.84375 C 27.972656 -56.519531 27.3125 -53.132812 27.3125 -49.6875 C 27.3125 -42.144531 30.140625 -35.382812 35.796875 -29.40625 C 41.453125 -23.4375 49.53125 -20.453125 60.03125 -20.453125 Z M 60.03125 -20.453125 "/></g></g></g></g></g></svg>