<svg xmlns="http://www.w3.org/2000/svg" xmlns:xlink="http://www.w3.org/1999/xlink" zoomAndPan="magnify" preserveAspectRatio="xMidYMid meet" version="1.0" viewBox="18 136.47 449.74 183.13"><defs><g/><clipPath id="068f3b36c2"><rect x="0" width="161" y="0" height="151"/></clipPath><clipPath id="043a8e4b6c"><path d="M 0.28125 8 L 102 8 L 102 108 L 0.28125 108 Z M 0.28125 8 " clip-rule="nonzero"/></clipPath><clipPath id="ae9ea9fb8c"><rect x="0" width="103" y="0" height="151"/></clipPath><clipPath id="2c9eacc37c"><rect x="0" width="107" y="0" height="151"/></clipPath><clipPath id="0144f970d8"><rect x="0" width="107" y="0" height="151"/></clipPath><clipPath id="c337f45c50"><rect x="0" width="92" y="0" height="151"/></clipPath></defs><g transform="matrix(1, 0, 0, 1, 81, 130)"><g clip-path="url(#068f3b36c2)"><g fill="#ffffff" fill-opacity="1"><g transform="translate(5.140798, 107.529991)"><g><path d="M 57.625 -99.25 L 97.6875 0 L 73.390625 0 L 66.046875 -19.84375 L 28.265625 -19.84375 L 20.9375 0 L -3.375 0 L 36.6875 -99.25 Z M 58.34375 -39.703125 L 47.28125 -68.578125 L 47.046875 -68.578125 L 35.96875 -39.703125 Z M 58.34375 -39.703125 "/></g></g></g><g fill="#ffffff" fill-opacity="1"><g transform="translate(81.528456, 107.529991)"><g><path d="M 7.21875 -99.25 L 43.4375 -99.25 C 53.539062 -99.25 61.71875 -96.640625 67.96875 -91.421875 C 74.226562 -86.210938 77.359375 -78.632812 77.359375 -68.6875 C 77.359375 -58.75 74.1875 -50.953125 67.84375 -45.296875 C 61.507812 -39.640625 53.375 -36.8125 43.4375 -36.8125 L 29.84375 -36.8125 L 29.84375 0 L 7.21875 0 Z M 29.84375 -54.859375 L 36.21875 -54.859375 C 41.269531 -54.859375 45.414062 -55.878906 48.65625 -57.921875 C 51.90625 -59.972656 53.53125 -63.320312 53.53125 -67.96875 C 53.53125 -72.707031 51.90625 -76.097656 48.65625 -78.140625 C 45.414062 -80.179688 41.269531 -81.203125 36.21875 -81.203125 L 29.84375 -81.203125 Z M 29.84375 -54.859375 "/></g></g></g></g></g><g fill="#f06a00" fill-opacity="1"><g transform="translate(120.363419, 318.316982)"><g><path d="M 45.53125 -70.609375 L 45.53125 -56.484375 L 21.234375 -56.484375 L 21.234375 -42.453125 L 44.515625 -42.453125 L 44.515625 -28.328125 L 21.234375 -28.328125 L 21.234375 -14.125 L 45.53125 -14.125 L 45.53125 0 L 5.140625 0 L 5.140625 -70.609375 Z M 45.53125 -70.609375 "/></g></g></g><g fill="#f06a00" fill-opacity="1"><g transform="translate(165.727887, 318.316982)"><g><path d="M 21.234375 -43.828125 L 21.234375 0 L 5.140625 0 L 5.140625 -70.609375 L 21.234375 -70.609375 L 49.296875 -26.796875 L 49.46875 -26.796875 L 49.46875 -70.609375 L 65.5625 -70.609375 L 65.5625 0 L 49.46875 0 L 21.390625 -43.828125 Z M 21.234375 -43.828125 "/></g></g></g><g fill="#f06a00" fill-opacity="1"><g transform="translate(232.148418, 318.316982)"><g><path d="M 45.53125 -70.609375 L 45.53125 -56.484375 L 21.234375 -56.484375 L 21.234375 -42.453125 L 44.515625 -42.453125 L 44.515625 -28.328125 L 21.234375 -28.328125 L 21.234375 -14.125 L 45.53125 -14.125 L 45.53125 0 L 5.140625 0 L 5.140625 -70.609375 Z M 45.53125 -70.609375 "/></g></g></g><g fill="#f06a00" fill-opacity="1"><g transform="translate(277.512886, 318.316982)"><g><path d="M 5.140625 -70.609375 L 30.390625 -70.609375 C 37.179688 -70.609375 42.710938 -68.796875 46.984375 -65.171875 C 51.265625 -61.554688 53.40625 -56.378906 53.40625 -49.640625 C 53.40625 -44.453125 52.109375 -40.101562 49.515625 -36.59375 C 46.921875 -33.082031 43.394531 -30.613281 38.9375 -29.1875 L 63.25 0 L 42.796875 0 L 21.234375 -27.90625 L 21.234375 0 L 5.140625 0 Z M 21.234375 -39.28125 L 23.109375 -39.28125 C 24.585938 -39.28125 25.84375 -39.304688 26.875 -39.359375 C 27.90625 -39.421875 29.078125 -39.625 30.390625 -39.96875 C 31.703125 -40.3125 32.753906 -40.796875 33.546875 -41.421875 C 34.347656 -42.054688 35.035156 -42.972656 35.609375 -44.171875 C 36.179688 -45.367188 36.46875 -46.820312 36.46875 -48.53125 C 36.46875 -50.238281 36.179688 -51.691406 35.609375 -52.890625 C 35.035156 -54.085938 34.347656 -55 33.546875 -55.625 C 32.753906 -56.257812 31.703125 -56.75 30.390625 -57.09375 C 29.078125 -57.4375 27.90625 -57.632812 26.875 -57.6875 C 25.84375 -57.75 24.585938 -57.78125 23.109375 -57.78125 L 21.234375 -57.78125 Z M 21.234375 -39.28125 "/></g></g></g><g fill="#f06a00" fill-opacity="1"><g transform="translate(334.518112, 318.316982)"><g><path d="M 68.984375 -39.546875 L 68.984375 -24.21875 C 67.160156 -15.832031 63.164062 -9.484375 57 -5.171875 C 50.84375 -0.867188 43.96875 1.28125 36.375 1.28125 C 26.84375 1.28125 18.722656 -2.28125 12.015625 -9.40625 C 5.316406 -16.539062 1.96875 -25.160156 1.96875 -35.265625 C 1.96875 -45.535156 5.25 -54.207031 11.8125 -61.28125 C 18.375 -68.363281 26.5625 -71.90625 36.375 -71.90625 C 47.84375 -71.90625 56.914062 -67.878906 63.59375 -59.828125 L 53.0625 -48.28125 C 49.300781 -54.320312 44.050781 -57.34375 37.3125 -57.34375 C 32.351562 -57.34375 28.117188 -55.1875 24.609375 -50.875 C 21.097656 -46.570312 19.34375 -41.367188 19.34375 -35.265625 C 19.34375 -29.273438 21.097656 -24.15625 24.609375 -19.90625 C 28.117188 -15.65625 32.351562 -13.53125 37.3125 -13.53125 C 41.425781 -13.53125 45.007812 -14.769531 48.0625 -17.25 C 51.113281 -19.726562 52.640625 -23.023438 52.640625 -27.140625 L 36.375 -27.140625 L 36.375 -39.546875 Z M 68.984375 -39.546875 "/></g></g></g><g fill="#f06a00" fill-opacity="1"><g transform="translate(401.195414, 318.316982)"><g><path d="M -2.5625 -70.609375 L 16.78125 -70.609375 L 31.5 -48.015625 L 46.21875 -70.609375 L 65.5625 -70.609375 L 39.546875 -31.671875 L 39.546875 0 L 23.453125 0 L 23.453125 -31.671875 Z M -2.5625 -70.609375 "/></g></g></g><g transform="matrix(1, 0, 0, 1, 209, 130)"><g clip-path="url(#ae9ea9fb8c)"><g clip-path="url(#043a8e4b6c)"><g fill="#ffffff" fill-opacity="1"><g transform="translate(3.94572, 107.530241)"><g><path d="M 57.625 -99.25 L 97.6875 0 L 73.390625 0 L 66.046875 -19.84375 L 28.265625 -19.84375 L 20.9375 0 L -3.375 0 L 36.6875 -99.25 Z M 58.34375 -39.703125 L 47.28125 -68.578125 L 47.046875 -68.578125 L 35.96875 -39.703125 Z M 58.34375 -39.703125 "/></g></g></g></g></g></g><g transform="matrix(1, 0, 0, 1, 285, 130)"><g clip-path="url(#2c9eacc37c)"><g fill="#ffffff" fill-opacity="1"><g transform="translate(5.829801, 107.530358)"><g><path d="M 100.09375 0 L 70.859375 0 L 47.40625 -33.8125 L 23.9375 0 L -4.09375 0 L 33.453125 -53.421875 L 2.171875 -99.25 L 29.109375 -99.25 L 47.40625 -72.1875 L 65.6875 -99.25 L 93.84375 -99.25 L 61.359375 -53.421875 Z M 100.09375 0 "/></g></g></g></g></g><g transform="matrix(1, 0, 0, 1, 362, 130)"><g clip-path="url(#0144f970d8)"><g fill="#ffffff" fill-opacity="1"><g transform="translate(5.641718, 107.530123)"><g><path d="M 100.09375 0 L 70.859375 0 L 47.40625 -33.8125 L 23.9375 0 L -4.09375 0 L 33.453125 -53.421875 L 2.171875 -99.25 L 29.109375 -99.25 L 47.40625 -72.1875 L 65.6875 -99.25 L 93.84375 -99.25 L 61.359375 -53.421875 Z M 100.09375 0 "/></g></g></g></g></g><g transform="matrix(1, 0, 0, 1, 15, 130)"><g clip-path="url(#c337f45c50)"><g fill="#ffffff" fill-opacity="1"><g transform="translate(0.232524, 107.529991)"><g><path d="M 60.03125 -20.453125 C 63.476562 -20.453125 66.828125 -20.972656 70.078125 -22.015625 C 73.328125 -23.054688 75.710938 -24.0625 77.234375 -25.03125 L 79.53125 -26.59375 L 89.15625 -7.34375 C 88.832031 -7.101562 88.390625 -6.78125 87.828125 -6.375 C 87.265625 -5.976562 85.957031 -5.238281 83.90625 -4.15625 C 81.863281 -3.070312 79.679688 -2.128906 77.359375 -1.328125 C 75.035156 -0.523438 71.988281 0.191406 68.21875 0.828125 C 64.445312 1.472656 60.554688 1.796875 56.546875 1.796875 C 47.316406 1.796875 38.570312 -0.46875 30.3125 -5 C 22.050781 -9.53125 15.394531 -15.765625 10.34375 -23.703125 C 5.289062 -31.640625 2.765625 -40.222656 2.765625 -49.453125 C 2.765625 -56.429688 4.25 -63.128906 7.21875 -69.546875 C 10.1875 -75.960938 14.132812 -81.453125 19.0625 -86.015625 C 24 -90.585938 29.753906 -94.238281 36.328125 -96.96875 C 42.910156 -99.695312 49.648438 -101.0625 56.546875 -101.0625 C 62.960938 -101.0625 68.875 -100.296875 74.28125 -98.765625 C 79.695312 -97.242188 83.53125 -95.722656 85.78125 -94.203125 L 89.15625 -91.921875 L 79.53125 -72.671875 C 78.96875 -73.148438 78.125 -73.726562 77 -74.40625 C 75.875 -75.09375 73.625 -75.992188 70.25 -77.109375 C 66.882812 -78.234375 63.476562 -78.796875 60.03125 -78.796875 C 54.582031 -78.796875 49.691406 -77.914062 45.359375 -76.15625 C 41.023438 -74.394531 37.59375 -72.066406 35.0625 -69.171875 C 32.539062 -66.285156 30.617188 -63.175781 29.296875 -59.84375 C 27.972656 -56.519531 27.3125 -53.132812 27.3125 -49.6875 C 27.3125 -42.144531 30.140625 -35.382812 35.796875 -29.40625 C 41.453125 -23.4375 49.53125 -20.453125 60.03125 -20.453125 Z M 60.03125 -20.453125 "/></g></g></g></g></g></svg>